# xmcd
#
# Track frame offsets:
# 150
# 13502
# 28862
# 42664
# 57633
# 73546
# 87121
# 105060
# 120429
# 137506
# 153701
# 169448
# 183829
# 199814
# 212869
#
# Disc length: 3048 seconds
#
#
# Revision: 0
# Processed by: cddbd v1.5.2PL0 Copyright (c) Steve Scherf et al.
# Submitted via: FreeRIP 2.941 
#
DISCID=d00be60f
DTITLE=Minha Praia
DYEAR=1900
DGENRE=Axe
TTITLE0=Muito bom
TTITLE1=Na capoeira
TTITLE2=Impossível
TTITLE3=Paixão não tem cura
TTITLE4=Beco sem saída
TTITLE5=Na brincadeira
TTITLE6=Holiday
TTITLE7=Gabriela
TTITLE8=Naquela Noite
TTITLE9=Nunca Mais
TTITLE10=A força da nossa paixão
TTITLE11=Caça e caçador
TTITLE12=Comendo agua
TTITLE13=Muito bom
TTITLE14=Tá bom
EXTD=
EXTT0=
EXTT1=
EXTT2=
EXTT3=
EXTT4=
EXTT5=
EXTT6=
EXTT7=
EXTT8=
EXTT9=
EXTT10=
EXTT11=
EXTT12=
EXTT13=
EXTT14=
PLAYORDER=
